# xmcd CD database file
#
# Track frame offsets:
#	150
#	25037
#	48423
#	62898
#	88029
#	114933
#	137474
#	159343
#	189202
#	214846
#	242024
#	268850
#	312906
#	335779
#
# Disc length: 4726 seconds
#
# Revision: 0
# Processed by: cddbd v1.5.2PL0 Copyright (c) Steve Scherf et al.
# Submitted via: CDex 1.51
#
DISCID=bf12740e
DTITLE=Chris Spheeris - Greatest Hits CD2
DYEAR=2009
DGENRE=New Age
TTITLE0=Andalu
TTITLE1=Quiver
TTITLE2=Field Of Tears
TTITLE3=Eros
TTITLE4=Allura
TTITLE5=From Where They Fall
TTITLE6=Aria
TTITLE7=Laguna
TTITLE8=Bellaire
TTITLE9=Lanotte
TTITLE10=Dancing With The Muse
TTITLE11=Shahzada
TTITLE12=Sapphire
TTITLE13=Embrace
EXTD=YEAR: 2009
EXTT0=
EXTT1=
EXTT2=
EXTT3=
EXTT4=
EXTT5=
EXTT6=
EXTT7=
EXTT8=
EXTT9=
EXTT10=
EXTT11=
EXTT12=
EXTT13=
PLAYORDER=
